<?xml version="1.0" encoding="utf-8"?>
<!-- Generator: Adobe Illustrator 26.0.3, SVG Export Plug-In . SVG Version: 6.00 Build 0)  -->
<svg version="1.1" id="Capa_1" xmlns="http://www.w3.org/2000/svg" xmlns:xlink="http://www.w3.org/1999/xlink" x="0px" y="0px"
	 viewBox="0 0 16 16" style="enable-background:new 0 0 16 16;" xml:space="preserve">
<style type="text/css">
	.st0{fill-rule:evenodd;clip-rule:evenodd;fill:#2F292B;}
</style>
<path class="st0" d="M10.5,3.5C10.5,2.1,9.4,1,8,1S5.5,2.1,5.5,3.5V4h5V3.5z M11.5,3.5V4H15v10c0,1.1-0.9,2-2,2H3c-1.1,0-2-0.9-2-2
	V4h3.5V3.5C4.5,1.6,6.1,0,8,0S11.5,1.6,11.5,3.5z M10.9,8.9c0.2-0.2,0.2-0.5,0-0.7s-0.5-0.2-0.7,0l-2.6,2.6L6.4,9.6
	c-0.2-0.2-0.5-0.2-0.7,0s-0.2,0.5,0,0.7l1.5,1.5c0.2,0.2,0.5,0.2,0.7,0l0,0L10.9,8.9z"/>
</svg>
