<?xml version="1.0" encoding="utf-8"?>
<!-- Generator: Adobe Illustrator 26.0.3, SVG Export Plug-In . SVG Version: 6.00 Build 0)  -->
<svg version="1.1" id="Capa_1" xmlns="http://www.w3.org/2000/svg" xmlns:xlink="http://www.w3.org/1999/xlink" x="0px" y="0px"
	 viewBox="0 0 16 16" style="enable-background:new 0 0 16 16;" xml:space="preserve">
<style type="text/css">
	.st0{fill:#2F292B;}
</style>
<path class="st0" d="M15,0.5C15,0.2,14.8,0,14.5,0c-0.1,0-0.2,0-0.2,0.1l-8,4C6.1,4.1,6,4.3,6,4.5v3.1L0.3,9.5C0.1,9.6,0,9.8,0,10
	v5.5C0,15.8,0.2,16,0.5,16h9c0.3,0,0.5-0.2,0.5-0.5V14h1v1.5c0,0.3,0.2,0.5,0.5,0.5h3c0.3,0,0.5-0.2,0.5-0.5V0.5z M2,11h1v1H2V11z
	 M4,11h1v1H4V11z M3,13v1H2v-1H3z M4,13h1v1H4V13z M13,3v1h-1V3H13z M8,5h1v1H8V5z M9,7v1H8V7H9z M8,9h1v1H8V9z M10,9h1v1h-1V9z
	 M9,11v1H8v-1H9z M10,11h1v1h-1V11z M13,9v1h-1V9H13z M12,11h1v1h-1V11z M10,7h1v1h-1V7z M13,7v1h-1V7H13z M11,5v1h-1V5H11z M12,5h1
	v1h-1V5z"/>
</svg>
