<?xml version="1.0" encoding="utf-8"?>
<!-- Generator: Adobe Illustrator 26.0.3, SVG Export Plug-In . SVG Version: 6.00 Build 0)  -->
<svg version="1.1" id="Capa_1" xmlns="http://www.w3.org/2000/svg" xmlns:xlink="http://www.w3.org/1999/xlink" x="0px" y="0px"
	 viewBox="0 0 16 16" style="enable-background:new 0 0 16 16;" xml:space="preserve">
<style type="text/css">
	.st0{fill:#2F292B;}
</style>
<path class="st0" d="M4,0.5C4,0.2,3.8,0,3.5,0S3,0.2,3,0.5V1H2C0.9,1,0,1.9,0,3v1h16V3c0-1.1-0.9-2-2-2h-1V0.5C13,0.2,12.8,0,12.5,0
	S12,0.2,12,0.5V1H4V0.5z M16,14V5H0v9c0,1.1,0.9,2,2,2h12C15.1,16,16,15.1,16,14z M10.9,8.9l-3,3c-0.2,0.2-0.5,0.2-0.7,0l0,0
	l-1.5-1.5c-0.2-0.2-0.2-0.5,0-0.7s0.5-0.2,0.7,0l1.1,1.1l2.6-2.6c0.2-0.2,0.5-0.2,0.7,0S11,8.7,10.9,8.9z"/>
</svg>
