<?xml version="1.0" encoding="utf-8"?>
<!-- Generator: Adobe Illustrator 27.0.0, SVG Export Plug-In . SVG Version: 6.00 Build 0)  -->
<svg version="1.1" id="Capa_1" xmlns="http://www.w3.org/2000/svg" xmlns:xlink="http://www.w3.org/1999/xlink" x="0px" y="0px"
	 viewBox="0 0 50 52.6" style="enable-background:new 0 0 50 52.6;" xml:space="preserve">
<style type="text/css">
	.st0{fill:#DFE0E2;}
	.st1{fill:#2F292B;}
</style>
<path class="st0" d="M46.5,52.6H3.5c-2,0-3.5-1.6-3.5-3.5V3.5C0,1.6,1.6,0,3.5,0h42.9c2,0,3.5,1.6,3.5,3.5v45.6
	C50,51.1,48.4,52.6,46.5,52.6z"/>
<g id="Capa_2_00000027598662660869918540000009063943716152603549_">
	<g id="Capa_1-2">
		<polygon class="st1" points="20.4,24.5 20.4,9.6 16.7,24.5 12.5,24.5 8.9,9.6 8.9,24.5 4.3,24.5 4.3,4.5 11.8,4.5 14.9,17.1 
			17.9,4.5 25.4,4.5 25.4,24.5 		"/>
		<path class="st1" d="M34.1,10.5c-3.7,0-7,2.5-7,7v0.3c0,4.6,3.3,7,7,7c3.7,0,7.2-2.4,7.2-7v-0.3C41.3,13,37.9,10.5,34.1,10.5z
			 M36.6,17.9c0,2.5-1,3.6-2.4,3.6s-2.4-1-2.4-3.6v-0.7c0-2.6,1-3.6,2.4-3.6s2.4,1,2.4,3.6V17.9z"/>
		<polygon class="st1" points="20.4,48.1 25.4,48.1 25.4,28.2 17.9,28.2 14.9,40.8 11.8,28.2 4.3,28.2 4.3,48.1 8.9,48.1 8.9,33.2 
			12.6,48.1 16.7,48.1 20.4,33.3 20.4,48.1 		"/>
		<path class="st1" d="M39.6,28.2h-6.2l-6.5,19.9h4.7l1.1-3.4h7l1,3.5h5L39.6,28.2z M34,40.8l2.4-7.8l2.3,7.8H34z"/>
	</g>
</g>
</svg>
