<?xml version="1.0" encoding="UTF-8"?>
<svg id="Capa_2" data-name="Capa 2" xmlns="http://www.w3.org/2000/svg" viewBox="0 0 226.77 57.3">
  <defs>
    <style>
      .cls-1 {
        fill: #dfe0e2;
      }
    </style>
  </defs>
  <g id="Capa_1-2" data-name="Capa 1">
    <path class="cls-1" d="M45.58,56.47V14.51l-10.43,41.95h-11.83L13,14.36V56.47H0V0H21.32l8.58,35.68L38.59,0h21.13V56.47h-14.14Zm109.61,0h14.1V0h-21.13l-8.69,35.68L130.89,0h-21.32V56.47h13.08V14.36l10.32,42.1h11.83l10.43-41.95V56.47h-.04Zm-77.33-20.37v1.89c0,7.14,2.83,10.09,6.73,10.09s6.84-2.95,6.84-10.09v-1.89c0-7.29-2.83-10.09-6.84-10.09s-6.73,2.8-6.73,10.09Zm-13.34,.49c0-12.74,9.49-19.69,19.88-19.69s20.41,6.99,20.41,19.73v.83c0,13-9.83,19.84-20.41,19.84s-19.92-6.84-19.92-19.84l.04-.87Zm145.32,10.09h-19.88l-3.1,9.75h-13.3L191.85,0h17.65l17.27,56.47h-13.98l-2.95-9.79Zm-9.6-33l-6.73,22.15h13.19l-6.46-22.15Z"/>
  </g>
</svg>